<svg xmlns="http://www.w3.org/2000/svg" xml:space="preserve" id="Layer_1" x="0" y="0" version="1.1" viewBox="0 0 960 960"><style>.st2{fill:#d83945}</style><path d="M725.8 788.9H234.2c-8.9 0-16.1-7.2-16.1-16.1V397.9c0-8.9 7.2-16.1 16.1-16.1h491.6c8.9 0 16.1 7.2 16.1 16.1v374.9c0 8.9-7.2 16.1-16.1 16.1" style="fill:#e8815d"/><path d="M754.1 439H205.9c-8.9 0-16.1-7.2-16.1-16.1V296c0-8.9 7.2-16.1 16.1-16.1h548.2c8.9 0 16.1 7.2 16.1 16.1v126.9c0 8.9-7.2 16.1-16.1 16.1" style="fill:#f69b76"/><path d="M495.7 291.5h-20c-16.5 0-30-13.4-30-30v-6.2c0-16.5 13.4-30 30-30h20c16.5 0 30 13.4 30 30v6.2c0 16.6-13.4 30-30 30M409.7 439H550v349.9H409.7z" class="st2"/><path d="M397.2 279.9h165.3V439H397.2z" style="fill:#ea3d53"/><path d="m467.5 239.5-89.3-57.7c-44.1-28.5-102.3 3.2-102.3 55.7 0 23.4 19 42.4 42.4 42.4H458c9.7 0 17.6-7.9 17.6-17.6v-8.1c-.1-5.9-3.1-11.5-8.1-14.7m-51.2 21H339c-9.4 0-17-7.6-17-17 0-30.8 34.1-49.3 59.9-32.6l41.9 27.1c4.6 2.9 6.8 8.6 5 14.1-1.7 5.2-7 8.4-12.5 8.4M493 254.3v8.1c0 9.7 7.9 17.6 17.6 17.6h139.7c23.4 0 42.4-19 42.4-42.4 0-52.5-58.2-84.2-102.3-55.7L501 239.5c-5 3.2-8 8.8-8 14.8m46.7-2.2c-1.7-5.5.5-11.2 5-14.1l41.9-27.1c25.8-16.7 59.9 1.9 59.9 32.6 0 9.4-7.6 17-17 17h-77.3c-5.5 0-10.9-3.2-12.5-8.4" class="st2"/></svg>